<svg xmlns="http://www.w3.org/2000/svg" version="1.1" xmlns:xlink="http://www.w3.org/1999/xlink" xmlns:svgjs="http://svgjs.dev/svgjs" viewBox="0 0 4.482411395749071 2.9892097811555205"><g transform="matrix(0.827613001417723,0,0,0.827613001417723,2.0362869927050142,1.0003293819402885)"><g transform="matrix(1,0,0,1,0,0)" clip-path="url(#SvgjsClipPath98765)"><g clip-path="url(#SvgjsClipPath987634e54cbd4-570d-4277-aed2-0f5f9c7e6014)"><path d=" M -1.3890975194887298 1.117157288487082 C -1.3976061887497413 1.100868323467361 -1.3915427714361917 1.0807657615023518 -1.3754463160417676 1.071898295249678 C -1.3593498606473438 1.0630308289970052 -1.3391178966872608 1.0686473814442992 -1.3298959866040265 1.0845434252421668 C -1.3075301524587375 1.1253976503537877 -1.27444445220903 1.1593775587183521 -1.2342010666942838 1.1828246943386596 C -1.1580478822879714 1.2275542818394154 -1.064464651029744 1.2308322725819596 -0.9853684114370844 1.1915406910980062 C -0.9496041982768038 1.1735693743890465 -0.9183531917147367 1.1477640877823494 -0.8939409676854789 1.116045158336779 C -0.8935788787993338 1.1156830694506348 -0.8935788787993338 1.1149071646946096 -0.8931909264213215 1.1145450758084645 C -0.8728321639212256 1.0882771930210389 -0.8430272255884623 1.070989957618194 -0.8101173905429174 1.0663613904593157 C -0.777268436038524 1.061957661907258 -0.7440079105962616 1.0706840193786982 -0.717551953149142 1.090647209322896 L -0.717551953149142 1.090647209322896 C -0.6621419187508066 1.1323402138551226 -0.6509416310027505 1.2110199211761792 -0.6925160930214038 1.2665189540218833 C -0.6936540866635739 1.2676569476640531 -0.6944041279277312 1.268794941306223 -0.695542121569901 1.2699329349483932 L -0.695542121569901 1.2703208873264056 C -0.6959300739479134 1.2706829762125502 -0.6966801152120712 1.2710709285905626 -0.6970680675900836 1.2714588809685754 C -0.7947619537281607 1.3973748475466956 -0.9454745799636801 1.4706751040473702 -1.104842488983445 1.4697831383923594 C -1.2642103980032104 1.4688911727373481 -1.4140931001516737 1.3939085153654789 -1.5103714328554287 1.2669069063998961 C -1.5110943689812444 1.2654290109643127 -1.511960639406566 1.2640256528752918 -1.5129577820421782 1.262717020717361 C -1.5330793732084111 1.239960798082429 -1.5673773060349478 1.2366507538406064 -1.5914793433519026 1.2551390176001846 C -1.6038216381669006 1.2646195698798302 -1.6119854244385048 1.2785351146609738 -1.6142392161953012 1.2939342554014317 C -1.6163245489204527 1.309287223527416 -1.612231652155954 1.3248402312325096 -1.6028592797736019 1.3371780138038885 L -1.6028592797736019 1.3371780138038885 C -1.4719102364229104 1.5100185679294298 -1.2611336598074818 1.6031755600939475 -1.045169144900649 1.5836605042154224 C -0.8292046299938165 1.5641454483368982 -0.6385417123012573 1.434713449759189 -0.5406973957591901 1.2411985954836031 C -0.5367308055557536 1.233195932482276 -0.5297430307435698 1.2271004099741951 -0.5212759420259849 1.2242570208690347 C -0.5128088533083996 1.2214136317638742 -0.5035583581720986 1.2220560733608874 -0.49556560245040604 1.226042589249249 C -0.4788509453124783 1.2344614219904235 -0.4720690217695618 1.2547956390867308 -0.48038373272418466 1.2715623349360459 C -0.5885492424577559 1.4861068213380455 -0.7997591549943585 1.6296562674956605 -1.0390543672610897 1.651264495734952 C -1.278349579527821 1.6728727239742445 -1.5118581357779457 1.5694811150117198 -1.6567070698417328 1.377783696035861 L -1.656707069841733 1.377783696035861 C -1.6838130083179275 1.3418719087872555 -1.6897012178218522 1.2942272028555473 -1.6721536668015686 1.2527968780046015 C -1.6546061157812846 1.2113665531536557 -1.6162886946968933 1.1824448613649228 -1.5716352053513796 1.1769263241190155 C -1.526981716005866 1.1714077868731079 -1.4827760857472019 1.190130801264902 -1.4556701478061347 1.2260425889174171 C -1.4545754246115419 1.2276260394497154 -1.4535653337335552 1.2292663579695224 -1.4526441190071728 1.2309566527040743 C -1.3676567811524978 1.3401509814407637 -1.236697547036654 1.4035807007471153 -1.0983312885322611 1.4025670285236398 C -0.9599650300278685 1.4015533563001643 -0.8299491757217125 1.3362117315841284 -0.7465707910244748 1.225783954330574 C -0.7456250530831342 1.2244151320913432 -0.7445790186617902 1.2231183952053795 -0.7434413085085074 1.221904430550449 C -0.7363938567134571 1.2101821089409261 -0.7335819724389203 1.196396572400177 -0.7354753530133177 1.1828505578305273 C -0.7375513544028613 1.1682843384656811 -0.7449954823275242 1.1550195851129361 -0.7563471909503889 1.1456588565250652 C -0.7576997811477145 1.1449293002111842 -0.7589737889001431 1.1440626282707558 -0.760149124254911 1.143072507338315 C -0.7721875604639127 1.1346430485498487 -0.7869826787214098 1.131110714065871 -0.801530711242908 1.1331926534449304 C -0.8165438281801638 1.1354941774710765 -0.8300989916232393 1.1434754280775867 -0.8393948633369255 1.1554869834347143 L -0.8409208093571074 1.1569870659630292 C -0.871194107213503 1.1969510950418427 -0.9102668490139811 1.229404038231504 -0.9551081259521115 1.2518284906411448 C -1.1125104998560387 1.3301872822064325 -1.303705386390694 1.2708576174754462 -1.3890975194887296 1.117157288487082 Z M -1.395459938488134 0.9798480101625343 C -1.3616822181091814 0.9024644424949803 -1.323378386653417 0.8266068208476082 -1.3112484089675605 0.7939670941108256 C -1.5510547055630028 0.1411208323914387 -1.139411368999903 -0.4988195468860666 -0.4498389488286687 -0.5859536509876676 C -0.376619403351782 -0.3249651545527445 -0.25257809635526085 0.5888437401096983 -1.1815947242357923 0.7982604337608307 L -0.8325927649757731 0.009501522277741037 C -0.8325927649757731 0.009501522277741037 -1.3207920374666673 0.8906965536952688 -1.3519058181832675 1.0056339115544302 C -1.3678377291736463 1.0651199428496758 -1.4251253636601544 1.0481276286927295 -1.3955375289637366 0.979770419686932 Z" fill="#353635" transform="matrix(1,0,0,1,0,0)" fill-rule="nonzero"></path></g></g><g><path d=" M 0.21240234375 0.9777832031250002 Q 0.224853515625 1.0056152343750002 0.25341796875 1.0220947265625002 Q 0.281982421875 1.0385742187500002 0.31787109375 1.0385742187500002 Q 0.328857421875 1.0385742187500002 0.353759765625 1.0352783203125002 Q 0.378662109375 1.0319824218750002 0.4112548828125 1.0133056640625002 Q 0.44384765625 0.9946289062500002 0.48046875 0.9543457031250002 Q 0.51708984375 0.9140625000000002 0.551513671875 0.8408203125000002 Q 0.55517578125 0.8327636718750002 0.561767578125 0.8287353515625002 Q 0.568359375 0.8247070312500002 0.576416015625 0.8247070312500002 Q 0.5888671875 0.8247070312500002 0.5965576171875 0.8334960937500002 Q 0.604248046875 0.8422851562500002 0.604248046875 0.8525390625000002 Q 0.604248046875 0.8569335937500002 0.601318359375 0.8642578125000002 Q 0.57568359375 0.9177246093750002 0.544189453125 0.9598388671875002 Q 0.5126953125 1.0019531250000002 0.47607421875 1.0316162109375002 Q 0.439453125 1.0612792968750002 0.3995361328125 1.0770263671875002 Q 0.359619140625 1.0927734375000002 0.31787109375 1.0927734375000002 Q 0.284912109375 1.0927734375000002 0.2559814453125 1.0825195312500002 Q 0.22705078125 1.0722656250000002 0.2061767578125 1.0550537109375002 Q 0.185302734375 1.0378417968750002 0.1732177734375 1.0162353515625002 Q 0.1611328125 0.9946289062500002 0.1611328125 0.9719238281250002 Q 0.1611328125 0.9689941406250002 0.161865234375 0.9638671875000002 Q 0.16259765625 0.9587402343750002 0.1658935546875 0.9525146484375002 Q 0.169189453125 0.9462890625000002 0.1754150390625 0.9407958984375002 Q 0.181640625 0.9353027343750002 0.192626953125 0.9316406250000002 Q 0.22265625 0.9228515625000002 0.2479248046875 0.9100341796875002 Q 0.273193359375 0.8972167968750002 0.29150390625 0.8811035156250002 Q 0.309814453125 0.8649902343750002 0.320068359375 0.8455810546875002 Q 0.330322265625 0.8261718750000002 0.330322265625 0.8034667968750002 Q 0.330322265625 0.7836914062500002 0.317138671875 0.7712402343750002 Q 0.303955078125 0.7587890625000002 0.284912109375 0.7587890625000002 Q 0.26513671875 0.7587890625000002 0.24609375 0.7723388671875002 Q 0.22705078125 0.7858886718750002 0.2091064453125 0.8082275390625002 Q 0.191162109375 0.8305664062500002 0.175048828125 0.8594970703125002 Q 0.158935546875 0.8884277343750002 0.1453857421875 0.9199218750000002 Q 0.1318359375 0.9514160156250002 0.12158203125 0.9825439453125002 Q 0.111328125 1.0136718750000002 0.104736328125 1.0400390625000002 Q 0.1025390625 1.0480957031250002 0.0999755859375 1.0576171875000002 Q 0.097412109375 1.0671386718750002 0.09228515625 1.0755615234375002 Q 0.087158203125 1.0839843750000002 0.079833984375 1.0894775390625002 Q 0.072509765625 1.0949707031250002 0.060791015625 1.0949707031250002 Q 0.0498046875 1.0949707031250002 0.03955078125 1.0858154296875002 Q 0.029296875 1.0766601562500002 0.029296875 1.0546875000000002 Q 0.029296875 1.0502929687500002 0.0296630859375 1.0209960937500002 Q 0.030029296875 0.9916992187500002 0.03076171875 0.9444580078125002 Q 0.031494140625 0.8972167968750002 0.0325927734375 0.8360595703125002 Q 0.03369140625 0.7749023437500002 0.034423828125 0.7064208984375002 Q 0.03515625 0.6379394531250002 0.03662109375 0.5654296875000002 Q 0.0380859375 0.4929199218750002 0.038818359375 0.4240722656250002 Q 0.03955078125 0.3552246093750002 0.0406494140625 0.2933349609375002 Q 0.041748046875 0.23144531250000022 0.04248046875 0.18347167968750022 Q 0.043212890625 0.13549804687500022 0.0435791015625 0.10510253906250022 Q 0.0439453125 0.07470703125000022 0.0439453125 0.06884765625000022 Q 0.0439453125 0.05712890625000022 0.052734375 0.04943847656250022 Q 0.0615234375 0.04174804687500022 0.07177734375 0.04174804687500022 Q 0.08349609375 0.04174804687500022 0.091552734375 0.04943847656250022 Q 0.099609375 0.05712890625000022 0.099609375 0.06958007812500022 Q 0.099609375 0.07104492187500022 0.0992431640625 0.09851074218750022 Q 0.098876953125 0.12597656250000022 0.09814453125 0.17211914062500022 Q 0.097412109375 0.21826171875000022 0.0963134765625 0.2797851562500002 Q 0.09521484375 0.3413085937500002 0.0941162109375 0.4105224609375002 Q 0.093017578125 0.4797363281250002 0.0919189453125 0.5529785156250002 Q 0.0908203125 0.6262207031250002 0.0897216796875 0.6958007812500002 Q 0.088623046875 0.7653808593750002 0.087890625 0.8283691406250002 Q 0.087158203125 0.8913574218750002 0.08642578125 0.9396972656250002 Q 0.09814453125 0.9023437500000002 0.116455078125 0.8609619140625002 Q 0.134765625 0.8195800781250002 0.15966796875 0.7844238281250002 Q 0.1845703125 0.7492675781250002 0.2156982421875 0.7265625000000002 Q 0.246826171875 0.7038574218750002 0.284912109375 0.7038574218750002 Q 0.30615234375 0.7038574218750002 0.324462890625 0.7115478515625002 Q 0.3427734375 0.7192382812500002 0.3563232421875 0.7327880859375002 Q 0.369873046875 0.7463378906250002 0.3775634765625 0.7646484375000002 Q 0.38525390625 0.7829589843750002 0.38525390625 0.8041992187500002 Q 0.38525390625 0.8371582031250002 0.37060546875 0.8646240234375002 Q 0.35595703125 0.8920898437500002 0.331787109375 0.9136962890625002 Q 0.3076171875 0.9353027343750002 0.2764892578125 0.9514160156250002 Q 0.245361328125 0.9675292968750002 0.21240234375 0.9777832031250002 M 0.62841796875 0.7668457031250002 Q 0.62548828125 0.7866210937500002 0.62109375 0.8038330078125002 Q 0.61669921875 0.8210449218750002 0.6126708984375 0.8338623046875002 Q 0.608642578125 0.8466796875000002 0.605712890625 0.8547363281250002 Q 0.602783203125 0.8627929687500002 0.60205078125 0.8635253906250002 Q 0.5947265625 0.8803710937500002 0.576416015625 0.8803710937500002 Q 0.566162109375 0.8803710937500002 0.557373046875 0.8726806640625002 Q 0.548583984375 0.8649902343750002 0.548583984375 0.8532714843750002 Q 0.548583984375 0.8488769531250002 0.550048828125 0.8466796875000002 Q 0.551513671875 0.8444824218750002 0.554443359375 0.8378906250000002 Q 0.557373046875 0.8312988281250002 0.561767578125 0.8159179687500002 Q 0.566162109375 0.8005371093750002 0.57275390625 0.7683105468750002 Q 0.560302734375 0.7683105468750002 0.547119140625 0.7675781250000002 Q 0.533935546875 0.7668457031250002 0.5225830078125 0.7624511718750002 Q 0.51123046875 0.7580566406250002 0.50390625 0.7485351562500002 Q 0.49658203125 0.7390136718750002 0.49658203125 0.7221679687500002 Q 0.49658203125 0.7097167968750002 0.5035400390625 0.6884765625000002 Q 0.510498046875 0.6672363281250002 0.522216796875 0.6467285156250002 Q 0.533935546875 0.6262207031250002 0.548583984375 0.6112060546875002 Q 0.563232421875 0.5961914062500002 0.577880859375 0.5961914062500002 Q 0.5947265625 0.5961914062500002 0.6053466796875 0.6086425781250002 Q 0.615966796875 0.6210937500000002 0.621826171875 0.6390380859375002 Q 0.627685546875 0.6569824218750002 0.6302490234375 0.6767578125000002 Q 0.6328125 0.6965332031250002 0.6328125 0.7111816406250002 Q 0.645263671875 0.7111816406250002 0.6573486328125 0.7108154296875002 Q 0.66943359375 0.7104492187500002 0.680419921875 0.7104492187500002 Q 0.72216796875 0.7104492187500002 0.744140625 0.7287597656250002 Q 0.76611328125 0.7470703125000002 0.76611328125 0.7888183593750002 Q 0.76611328125 0.8056640625000002 0.763916015625 0.8239746093750002 Q 0.76171875 0.8422851562500002 0.7587890625 0.8616943359375002 Q 0.755859375 0.8811035156250002 0.753662109375 0.9001464843750002 Q 0.75146484375 0.9191894531250002 0.75146484375 0.9375000000000002 Q 0.75146484375 0.9638671875000002 0.7587890625 0.9810791015625002 Q 0.76611328125 0.9982910156250002 0.777099609375 1.0085449218750002 Q 0.7880859375 1.0187988281250002 0.800537109375 1.0228271484375002 Q 0.81298828125 1.0268554687500002 0.8232421875 1.0268554687500002 Q 0.854736328125 1.0268554687500002 0.882568359375 1.0063476562500002 Q 0.910400390625 0.9858398437500002 0.933837890625 0.9569091796875002 Q 0.957275390625 0.9279785156250002 0.9759521484375 0.8957519531250002 Q 0.99462890625 0.8635253906250002 1.007080078125 0.8393554687500002 Q 1.0107421875 0.8327636718750002 1.017333984375 0.8291015625000002 Q 1.02392578125 0.8254394531250002 1.03125 0.8254394531250002 Q 1.04443359375 0.8254394531250002 1.0517578125 0.8338623046875002 Q 1.05908203125 0.8422851562500002 1.05908203125 0.8525390625000002 Q 1.05908203125 0.8598632812500002 1.05615234375 0.8657226562500002 Q 1.039306640625 0.8957519531250002 1.0169677734375 0.9334716796875002 Q 0.99462890625 0.9711914062500002 0.966064453125 1.0041503906250002 Q 0.9375 1.0371093750000002 0.9019775390625 1.0598144531250002 Q 0.866455078125 1.0825195312500002 0.823974609375 1.0825195312500002 Q 0.797607421875 1.0825195312500002 0.774169921875 1.0726318359375002 Q 0.750732421875 1.0627441406250002 0.7335205078125 1.0440673828125002 Q 0.71630859375 1.0253906250000002 0.7060546875 0.9979248046875002 Q 0.69580078125 0.9704589843750002 0.69580078125 0.9360351562500002 Q 0.69580078125 0.8994140625000002 0.703125 0.8631591796875002 Q 0.71044921875 0.8269042968750002 0.71044921875 0.7939453125000002 Q 0.71044921875 0.7800292968750002 0.7042236328125 0.7730712890625002 Q 0.697998046875 0.7661132812500002 0.6767578125 0.7661132812500002 Q 0.66650390625 0.7661132812500002 0.6544189453125 0.7661132812500002 Q 0.642333984375 0.7661132812500002 0.62841796875 0.7668457031250002 M 0.579345703125 0.7126464843750002 Q 0.579345703125 0.7075195312500002 0.5789794921875 0.6990966796875002 Q 0.57861328125 0.6906738281250002 0.5775146484375 0.6826171875000002 Q 0.576416015625 0.6745605468750002 0.5745849609375 0.6687011718750002 Q 0.57275390625 0.6628417968750002 0.570556640625 0.6628417968750002 Q 0.568359375 0.6628417968750002 0.5650634765625 0.6683349609375002 Q 0.561767578125 0.6738281250000002 0.55810546875 0.6815185546875002 Q 0.554443359375 0.6892089843750002 0.551513671875 0.6979980468750002 Q 0.548583984375 0.7067871093750002 0.547119140625 0.7126464843750002 L 0.579345703125 0.7126464843750002 M 1.572509765625 0.8635253906250002 Q 1.569580078125 0.8693847656250002 1.5604248046875 0.8880615234375002 Q 1.55126953125 0.9067382812500002 1.5369873046875 0.9309082031250002 Q 1.522705078125 0.9550781250000002 1.503662109375 0.9814453125000002 Q 1.484619140625 1.0078125000000002 1.461181640625 1.0297851562500002 Q 1.437744140625 1.0517578125000002 1.41064453125 1.0660400390625002 Q 1.383544921875 1.0803222656250002 1.353515625 1.0803222656250002 Q 1.31103515625 1.0803222656250002 1.2821044921875 1.0532226562500002 Q 1.253173828125 1.0261230468750002 1.239990234375 0.9851074218750002 Q 1.215087890625 1.0268554687500002 1.1806640625 1.0513916015625002 Q 1.146240234375 1.0759277343750002 1.11181640625 1.0759277343750002 Q 1.084716796875 1.0759277343750002 1.062744140625 1.0660400390625002 Q 1.040771484375 1.0561523437500002 1.025390625 1.0382080078125002 Q 1.010009765625 1.0202636718750002 1.0015869140625 0.9960937500000002 Q 0.9931640625 0.9719238281250002 0.9931640625 0.9433593750000002 Q 0.9931640625 0.8862304687500002 1.0125732421875 0.8426513671875002 Q 1.031982421875 0.7990722656250002 1.06201171875 0.7697753906250002 Q 1.092041015625 0.7404785156250002 1.1282958984375 0.7258300781250002 Q 1.16455078125 0.7111816406250002 1.1982421875 0.7111816406250002 Q 1.220947265625 0.7111816406250002 1.239990234375 0.7174072265625002 Q 1.259033203125 0.7236328125000002 1.2725830078125 0.7309570312500002 Q 1.2861328125 0.7382812500000002 1.29345703125 0.7445068359375002 Q 1.30078125 0.7507324218750002 1.301513671875 0.7514648437500002 Q 1.3095703125 0.7609863281250002 1.3095703125 0.7712402343750002 Q 1.3095703125 0.7822265625000002 1.301513671875 0.7906494140625002 Q 1.29345703125 0.7990722656250002 1.282470703125 0.7990722656250002 Q 1.270751953125 0.7990722656250002 1.2626953125 0.7910156250000002 Q 1.26123046875 0.7895507812500002 1.256103515625 0.7855224609375002 Q 1.2509765625 0.7814941406250002 1.2421875 0.7770996093750002 Q 1.2333984375 0.7727050781250002 1.2213134765625 0.7694091796875002 Q 1.209228515625 0.7661132812500002 1.19384765625 0.7661132812500002 Q 1.171142578125 0.7661132812500002 1.1455078125 0.7763671875000002 Q 1.119873046875 0.7866210937500002 1.0986328125 0.8082275390625002 Q 1.077392578125 0.8298339843750002 1.0631103515625 0.8624267578125002 Q 1.048828125 0.8950195312500002 1.048828125 0.9396972656250002 Q 1.048828125 0.9536132812500002 1.0517578125 0.9678955078125002 Q 1.0546875 0.9821777343750002 1.06201171875 0.9938964843750002 Q 1.0693359375 1.0056152343750002 1.081787109375 1.0129394531250002 Q 1.09423828125 1.0202636718750002 1.112548828125 1.0202636718750002 Q 1.125732421875 1.0202636718750002 1.1429443359375 1.0114746093750002 Q 1.16015625 1.0026855468750002 1.1759033203125 0.9843750000000002 Q 1.191650390625 0.9660644531250002 1.2044677734375 0.9382324218750002 Q 1.21728515625 0.9104003906250002 1.222412109375 0.8723144531250002 Q 1.223876953125 0.8620605468750002 1.23193359375 0.8551025390625002 Q 1.239990234375 0.8481445312500002 1.2509765625 0.8481445312500002 Q 1.26123046875 0.8481445312500002 1.2689208984375 0.8562011718750002 Q 1.276611328125 0.8642578125000002 1.27734375 0.8745117187500002 Q 1.278076171875 0.8884277343750002 1.2802734375 0.9136962890625002 Q 1.282470703125 0.9389648437500002 1.2901611328125 0.9638671875000002 Q 1.2978515625 0.9887695312500002 1.313232421875 1.0070800781250002 Q 1.32861328125 1.0253906250000002 1.355712890625 1.0253906250000002 Q 1.373291015625 1.0253906250000002 1.3905029296875 1.0158691406250002 Q 1.40771484375 1.0063476562500002 1.4241943359375 0.9906005859375002 Q 1.440673828125 0.9748535156250002 1.4556884765625 0.9547119140625002 Q 1.470703125 0.9345703125000002 1.483154296875 0.9140625000000002 Q 1.49560546875 0.8935546875000002 1.505126953125 0.8745117187500002 Q 1.5146484375 0.8554687500000002 1.521240234375 0.8415527343750002 Q 1.52490234375 0.8334960937500002 1.5318603515625 0.8291015625000002 Q 1.538818359375 0.8247070312500002 1.546875 0.8247070312500002 Q 1.559326171875 0.8247070312500002 1.5670166015625 0.8338623046875002 Q 1.57470703125 0.8430175781250002 1.57470703125 0.8532714843750002 Q 1.57470703125 0.8583984375000002 1.572509765625 0.8635253906250002 M 1.5791015625 1.1037597656250002 Q 1.63330078125 1.0795898437500002 1.6776123046875 1.0480957031250002 Q 1.721923828125 1.0166015625000002 1.7567138671875 0.9818115234375002 Q 1.79150390625 0.9470214843750002 1.8160400390625 0.9107666015625002 Q 1.840576171875 0.8745117187500002 1.855224609375 0.8415527343750002 Q 1.86181640625 0.8254394531250002 1.880126953125 0.8254394531250002 Q 1.892578125 0.8254394531250002 1.9002685546875 0.8338623046875002 Q 1.907958984375 0.8422851562500002 1.907958984375 0.8525390625000002 Q 1.907958984375 0.8583984375000002 1.90576171875 0.8635253906250002 Q 1.8896484375 0.8994140625000002 1.86474609375 0.9378662109375002 Q 1.83984375 0.9763183593750002 1.8043212890625 1.0133056640625002 Q 1.768798828125 1.0502929687500002 1.72119140625 1.0847167968750002 Q 1.673583984375 1.1191406250000002 1.612060546875 1.1477050781250002 Q 1.651611328125 1.1887207031250002 1.680908203125 1.2388916015625002 Q 1.710205078125 1.2890625000000002 1.7296142578125 1.3432617187500002 Q 1.7490234375 1.3974609375000002 1.7589111328125 1.4527587890625002 Q 1.768798828125 1.5080566406250002 1.768798828125 1.5585937500000002 Q 1.768798828125 1.6047363281250002 1.7603759765625 1.6453857421875002 Q 1.751953125 1.6860351562500002 1.7354736328125 1.7160644531250002 Q 1.718994140625 1.7460937500000002 1.695556640625 1.7633056640625002 Q 1.672119140625 1.7805175781250002 1.64208984375 1.7805175781250002 Q 1.59814453125 1.7805175781250002 1.573974609375 1.7479248046875002 Q 1.5498046875 1.7153320312500002 1.5384521484375 1.6578369140625002 Q 1.527099609375 1.6003417968750002 1.5252685546875 1.5223388671875002 Q 1.5234375 1.4443359375000002 1.5234375 1.3527832031250002 Q 1.5234375 1.3073730468750002 1.5234375 1.2469482421875002 Q 1.5234375 1.1865234375000002 1.5238037109375 1.1173095703125002 Q 1.524169921875 1.0480957031250002 1.5245361328125 0.9722900390625002 Q 1.52490234375 0.8964843750000002 1.525634765625 0.8203125000000002 Q 1.5263671875 0.7441406250000002 1.527099609375 0.6705322265625002 Q 1.52783203125 0.5969238281250002 1.529296875 0.5310058593750002 Q 1.531494140625 0.4050292968750002 1.5380859375 0.3061523437500002 Q 1.544677734375 0.20727539062500022 1.559326171875 0.13916015625000022 Q 1.573974609375 0.07104492187500022 1.5992431640625 0.03552246093750022 Q 1.62451171875 2.220446049250313e-16 1.663330078125 2.220446049250313e-16 Q 1.694091796875 2.220446049250313e-16 1.71533203125 0.017211914062500222 Q 1.736572265625 0.03442382812500022 1.749755859375 0.06335449218750022 Q 1.762939453125 0.09228515625000022 1.768798828125 0.13110351562500022 Q 1.774658203125 0.16992187500000022 1.774658203125 0.21240234375000022 Q 1.774658203125 0.3017578125000002 1.75927734375 0.3852539062500002 Q 1.743896484375 0.4687500000000002 1.717529296875 0.5471191406250002 Q 1.691162109375 0.6254882812500002 1.6556396484375 0.7001953125000002 Q 1.6201171875 0.7749023437500002 1.579833984375 0.8474121093750002 Q 1.579833984375 0.8774414062500002 1.579833984375 0.9122314453125002 Q 1.579833984375 0.9470214843750002 1.579833984375 0.9818115234375002 Q 1.579833984375 1.0166015625000002 1.5794677734375 1.0484619140625002 Q 1.5791015625 1.0803222656250002 1.5791015625 1.1037597656250002 M 1.581298828125 0.7346191406250002 Q 1.611328125 0.6782226562500002 1.6365966796875 0.6156005859375002 Q 1.661865234375 0.5529785156250002 1.68017578125 0.4863281250000002 Q 1.698486328125 0.4196777343750002 1.708740234375 0.3500976562500002 Q 1.718994140625 0.2805175781250002 1.718994140625 0.21020507812500022 Q 1.718994140625 0.17504882812500022 1.7156982421875 0.14648437500000022 Q 1.71240234375 0.11791992187500022 1.7054443359375 0.09777832031250022 Q 1.698486328125 0.07763671875000022 1.6878662109375 0.06628417968750022 Q 1.67724609375 0.05493164062500022 1.663330078125 0.05493164062500022 Q 1.648681640625 0.05493164062500022 1.6376953125 0.07250976562500022 Q 1.626708984375 0.09008789062500022 1.61865234375 0.11938476562500022 Q 1.610595703125 0.14868164062500022 1.6051025390625 0.18676757812500022 Q 1.599609375 0.22485351562500022 1.595947265625 0.2662353515625002 Q 1.59228515625 0.3076171875000002 1.590087890625 0.3489990234375002 Q 1.587890625 0.3903808593750002 1.5867919921875 0.4266357421875002 Q 1.585693359375 0.4628906250000002 1.5853271484375 0.4907226562500002 Q 1.5849609375 0.5185546875000002 1.5849609375 0.5324707031250002 Q 1.584228515625 0.5617675781250002 1.5838623046875 0.5844726562500002 Q 1.58349609375 0.6071777343750002 1.582763671875 0.6291503906250002 Q 1.58203125 0.6511230468750002 1.5816650390625 0.6760253906250002 Q 1.581298828125 0.7009277343750002 1.581298828125 0.7346191406250002 M 1.5791015625 1.1938476562500002 Q 1.5791015625 1.2399902343750002 1.5787353515625 1.2799072265625002 Q 1.578369140625 1.3198242187500002 1.578369140625 1.3527832031250002 Q 1.578369140625 1.4208984375000002 1.5791015625 1.4875488281250002 Q 1.579833984375 1.5541992187500002 1.5860595703125 1.6072998046875002 Q 1.59228515625 1.6604003906250002 1.6051025390625 1.6929931640625002 Q 1.617919921875 1.7255859375000002 1.64208984375 1.7255859375000002 Q 1.6640625 1.7255859375000002 1.677978515625 1.7058105468750002 Q 1.69189453125 1.6860351562500002 1.6995849609375 1.6589355468750002 Q 1.707275390625 1.6318359375000002 1.710205078125 1.6036376953125002 Q 1.713134765625 1.5754394531250002 1.713134765625 1.5578613281250002 Q 1.713134765625 1.5131835937500002 1.7047119140625 1.4641113281250002 Q 1.6962890625 1.4150390625000002 1.6790771484375 1.3670654296875002 Q 1.661865234375 1.3190917968750002 1.636962890625 1.2744140625000002 Q 1.612060546875 1.2297363281250002 1.5791015625 1.1938476562500002 M 2.448486328125 0.3347167968750002 Q 2.448486328125 0.3464355468750002 2.4404296875 0.3533935546875002 Q 2.432373046875 0.3603515625000002 2.420654296875 0.3603515625000002 L 2.04931640625 0.3603515625000002 L 2.04931640625 0.3684082031250002 Q 2.04931640625 0.4130859375000002 2.042724609375 0.4636230468750002 Q 2.0361328125 0.5141601562500002 2.0247802734375 0.5643310546875002 Q 2.013427734375 0.6145019531250002 1.9991455078125 0.6621093750000002 Q 1.98486328125 0.7097167968750002 1.9698486328125 0.7500000000000002 Q 1.954833984375 0.7902832031250002 1.940185546875 0.8199462890625002 Q 1.925537109375 0.8496093750000002 1.913818359375 0.8642578125000002 Q 1.92333984375 0.8979492187500002 1.9365234375 0.9268798828125002 Q 1.94970703125 0.9558105468750002 1.9661865234375 0.9774169921875002 Q 1.982666015625 0.9990234375000002 2.001708984375 1.0114746093750002 Q 2.020751953125 1.0239257812500002 2.042724609375 1.0239257812500002 Q 2.068359375 1.0239257812500002 2.0936279296875 1.0023193359375002 Q 2.118896484375 0.9807128906250002 2.1405029296875 0.9510498046875002 Q 2.162109375 0.9213867187500002 2.1785888671875 0.8909912109375002 Q 2.195068359375 0.8605957031250002 2.202392578125 0.8422851562500002 Q 2.209716796875 0.8247070312500002 2.22802734375 0.8247070312500002 Q 2.240478515625 0.8247070312500002 2.2481689453125 0.8334960937500002 Q 2.255859375 0.8422851562500002 2.255859375 0.8525390625000002 Q 2.255859375 0.8576660156250002 2.253662109375 0.8627929687500002 Q 2.25146484375 0.8679199218750002 2.2430419921875 0.8862304687500002 Q 2.234619140625 0.9045410156250002 2.2210693359375 0.9287109375000002 Q 2.20751953125 0.9528808593750002 2.1895751953125 0.9796142578125002 Q 2.171630859375 1.0063476562500002 2.1492919921875 1.0283203125000002 Q 2.126953125 1.0502929687500002 2.101318359375 1.0649414062500002 Q 2.07568359375 1.0795898437500002 2.047119140625 1.0795898437500002 Q 1.99658203125 1.0795898437500002 1.956298828125 1.0466308593750002 Q 1.916015625 1.0136718750000002 1.8878173828125 0.9543457031250002 Q 1.859619140625 0.8950195312500002 1.844970703125 0.8137207031250002 Q 1.830322265625 0.7324218750000002 1.830322265625 0.6357421875000002 Q 1.830322265625 0.6115722656250002 1.8310546875 0.5789794921875002 Q 1.831787109375 0.5463867187500002 1.833984375 0.5101318359375002 Q 1.836181640625 0.4738769531250002 1.840576171875 0.4354248046875002 Q 1.844970703125 0.3969726562500002 1.852294921875 0.3603515625000002 L 1.58935546875 0.3603515625000002 Q 1.57763671875 0.3603515625000002 1.569580078125 0.3533935546875002 Q 1.5615234375 0.3464355468750002 1.5615234375 0.3347167968750002 Q 1.5615234375 0.3229980468750002 1.569580078125 0.3160400390625002 Q 1.57763671875 0.3090820312500002 1.58935546875 0.3090820312500002 L 1.86474609375 0.3090820312500002 Q 1.8720703125 0.2827148437500002 1.8819580078125 0.2607421875000002 Q 1.891845703125 0.23876953125000022 1.9046630859375 0.22265625000000022 Q 1.91748046875 0.20654296875000022 1.9332275390625 0.19738769531250022 Q 1.948974609375 0.18823242187500022 1.968017578125 0.18823242187500022 Q 1.986328125 0.18823242187500022 1.9998779296875 0.19738769531250022 Q 2.013427734375 0.20654296875000022 2.02294921875 0.22265625000000022 Q 2.032470703125 0.23876953125000022 2.0379638671875 0.2607421875000002 Q 2.04345703125 0.2827148437500002 2.04638671875 0.3090820312500002 L 2.420654296875 0.3090820312500002 Q 2.432373046875 0.3090820312500002 2.4404296875 0.3160400390625002 Q 2.448486328125 0.3229980468750002 2.448486328125 0.3347167968750002 M 1.89697265625 0.7910156250000002 Q 1.9189453125 0.7426757812500002 1.9368896484375 0.6866455078125002 Q 1.954833984375 0.6306152343750002 1.9676513671875 0.5734863281250002 Q 1.98046875 0.5163574218750002 1.9874267578125 0.4614257812500002 Q 1.994384765625 0.4064941406250002 1.994384765625 0.3603515625000002 L 1.907958984375 0.3603515625000002 Q 1.897705078125 0.4057617187500002 1.8914794921875 0.4727783203125002 Q 1.88525390625 0.5397949218750002 1.88525390625 0.6357421875000002 Q 1.88525390625 0.6892089843750002 1.88818359375 0.7254638671875002 Q 1.89111328125 0.7617187500000002 1.89697265625 0.7910156250000002 M 1.965087890625 0.24316406250000022 Q 1.95849609375 0.24316406250000022 1.946044921875 0.2574462890625002 Q 1.93359375 0.2717285156250002 1.921142578125 0.3090820312500002 L 1.991455078125 0.3090820312500002 Q 1.98779296875 0.2783203125000002 1.9808349609375 0.2607421875000002 Q 1.973876953125 0.24316406250000022 1.965087890625 0.24316406250000022 M 1.90869140625 0.8437500000000002 L 1.90869140625 0.8444824218750002 L 1.90869140625 0.8437500000000002" fill="#1d1d1b" fill-rule="nonzero"></path></g><g></g></g><defs><clipPath id="SvgjsClipPath98765"><path d=" M -1.682286063298688 -0.5860571049551376 h 1.282286063298688 v 2.2399853036602755 h -1.282286063298688 Z"></path></clipPath><clipPath id="SvgjsClipPath987634e54cbd4-570d-4277-aed2-0f5f9c7e6014"><path d=" M -1.682286063298688 -0.5860571049551376 L -0.3999999999999999 -0.5860571049551376 L -0.3999999999999999 1.6539281987051377 L -1.682286063298688 1.6539281987051377 Z"></path></clipPath></defs></svg>